<svg aria-hidden="true" style="position: absolute; width: 0; height: 0; overflow: hidden;" version="1.1" xmlns="http://www.w3.org/2000/svg" xmlns:xlink="http://www.w3.org/1999/xlink">
<defs>
<symbol id="icon-shopping" viewBox="0 0 32 32">
<path d="M31.815 6.686c-0.183-0.263-0.478-0.425-0.798-0.438l-19.85-0.856c-0.57-0.025-1.045 0.415-1.070 0.982s0.415 1.045 0.982 1.070l18.506 0.798-3.639 11.353h-16.192l-2.925-15.929c-0.064-0.349-0.304-0.64-0.635-0.77l-4.791-1.882c-0.528-0.207-1.124 0.053-1.331 0.58s0.052 1.124 0.58 1.331l4.26 1.674 2.977 16.208c0.090 0.487 0.514 0.841 1.010 0.841h0.494l-1.128 3.132c-0.094 0.262-0.056 0.554 0.105 0.782s0.421 0.364 0.7 0.364h0.791c-0.49 0.545-0.791 1.264-0.791 2.053 0 1.699 1.382 3.080 3.080 3.080s3.080-1.382 3.080-3.080c0-0.79-0.301-1.508-0.791-2.053h6.716c-0.49 0.545-0.791 1.264-0.791 2.053 0 1.699 1.382 3.080 3.080 3.080s3.080-1.382 3.080-3.080c0-0.79-0.301-1.508-0.791-2.053h0.962c0.473 0 0.856-0.383 0.856-0.856s-0.383-0.856-0.856-0.856h-16.408l0.924-2.567h15.484c0.447 0 0.842-0.288 0.978-0.713l4.278-13.348c0.098-0.305 0.048-0.638-0.135-0.9zM12.15 29.348c-0.755 0-1.369-0.614-1.369-1.369s0.614-1.369 1.369-1.369c0.755 0 1.369 0.614 1.369 1.369s-0.614 1.369-1.369 1.369zM23.444 29.348c-0.755 0-1.369-0.614-1.369-1.369s0.614-1.369 1.369-1.369c0.755 0 1.369 0.614 1.369 1.369s-0.614 1.369-1.369 1.369z"></path>
</symbol>
<symbol id="icon-comparison" viewBox="0 0 32 32">
<path d="M31.866 19.535l-5.391-8.986 4.838-1.344c0.499-0.139 0.791-0.655 0.652-1.154s-0.655-0.791-1.154-0.652l-6.014 1.671c-0 0-0.001 0-0.001 0l-7.858 2.183v-10.314c0-0.518-0.42-0.938-0.938-0.938s-0.938 0.42-0.938 0.938v10.835l-8.34 2.317c-0 0-0.001 0-0.001 0l-6.034 1.676c-0.499 0.139-0.791 0.655-0.652 1.154 0.115 0.415 0.492 0.687 0.903 0.687 0.083 0 0.168-0.011 0.251-0.034l3.762-1.045-4.816 8.028c-0.087 0.146-0.134 0.312-0.134 0.482 0 3.839 3.123 6.962 6.962 6.962s6.962-3.123 6.962-6.962c0-0.17-0.046-0.337-0.134-0.482l-5.391-8.986 14.625-4.062-4.816 8.028c-0.087 0.146-0.134 0.312-0.134 0.482 0 3.839 3.123 6.962 6.962 6.962 1.86 0 3.608-0.724 4.923-2.039s2.039-3.063 2.039-4.923c0-0.17-0.046-0.337-0.133-0.482zM6.963 30.125c-2.485 0-4.558-1.791-5-4.15h10c-0.441 2.359-2.515 4.15-5 4.15zM11.332 24.1h-8.738l4.369-7.283 4.369 7.283zM25.037 11.797l4.369 7.282h-8.738l4.369-7.282zM25.037 25.104c-2.485 0-4.558-1.791-5-4.15h10c-0.441 2.359-2.515 4.15-5 4.15z"></path>
</symbol>
<symbol id="icon-menu" viewBox="0 0 32 32">
<path d="M29.188 3.813h-18.875c-1.551 0-2.813 1.262-2.813 2.813s1.261 2.813 2.813 2.813h18.875c1.551 0 2.812-1.261 2.812-2.813s-1.262-2.813-2.812-2.813z"></path>
<path d="M29.188 13.188h-18.875c-1.551 0-2.813 1.262-2.813 2.812s1.261 2.812 2.813 2.812h18.875c1.551 0 2.812-1.261 2.812-2.812s-1.262-2.812-2.812-2.812z"></path>
<path d="M29.188 22.563h-18.875c-1.551 0-2.813 1.262-2.813 2.812s1.261 2.813 2.813 2.813h18.875c1.551 0 2.812-1.261 2.812-2.813s-1.262-2.812-2.812-2.812z"></path>
<path d="M2.813 3.813c-1.551 0-2.813 1.262-2.813 2.813s1.261 2.813 2.813 2.813c1.551 0 2.813-1.261 2.813-2.813s-1.262-2.813-2.813-2.813z"></path>
<path d="M2.813 13.188c-1.551 0-2.813 1.262-2.813 2.812s1.261 2.812 2.813 2.812c1.551 0 2.813-1.261 2.813-2.812s-1.262-2.812-2.813-2.812z"></path>
<path d="M2.813 22.563c-1.551 0-2.813 1.262-2.813 2.812s1.261 2.813 2.813 2.813c1.551 0 2.813-1.261 2.813-2.813s-1.262-2.812-2.813-2.812z"></path>
</symbol>
<symbol id="icon-logout" viewBox="0 0 32 32">
<path d="M5.333 21.333v2.667c0 2.947 2.388 5.333 5.333 5.333h13.333c2.947 0 5.333-2.387 5.333-5.333 0-4.439 0-11.56 0-16 0-2.945-2.387-5.333-5.333-5.333-3.812 0-9.52 0-13.333 0-2.945 0-5.333 2.388-5.333 5.333v2.667c0 0.736 0.597 1.333 1.333 1.333s1.333-0.597 1.333-1.333c0 0 0-1.249 0-2.667 0-1.472 1.195-2.667 2.667-2.667h13.333c1.473 0 2.667 1.195 2.667 2.667v16c0 1.473-1.193 2.667-2.667 2.667-3.812 0-9.52 0-13.333 0-1.472 0-2.667-1.193-2.667-2.667 0-1.416 0-2.667 0-2.667 0-0.735-0.597-1.333-1.333-1.333s-1.333 0.599-1.333 1.333zM15.448 14.667l-1.724-1.723c-0.52-0.521-0.52-1.365 0-1.887 0.521-0.52 1.365-0.52 1.885 0l4 4c0.521 0.521 0.521 1.365 0 1.887l-4 4c-0.52 0.52-1.364 0.52-1.885 0-0.52-0.521-0.52-1.365 0-1.887l1.724-1.724h-11.448c-0.736 0-1.333-0.597-1.333-1.333 0-0.735 0.597-1.333 1.333-1.333h11.448z"></path>
</symbol>
<symbol id="icon-cancel" viewBox="0 0 35 32">
<path d="M20.127 16l9.289-9.064c0.255-0.25 0.396-0.582 0.397-0.937s-0.141-0.688-0.397-0.938l-0.814-0.794c-0.256-0.25-0.597-0.387-0.961-0.387s-0.705 0.137-0.961 0.387l-9.289 9.064-9.29-9.064c-0.255-0.25-0.597-0.387-0.961-0.387s-0.705 0.137-0.96 0.387l-0.814 0.794c-0.53 0.517-0.53 1.358 0 1.875l9.289 9.064-9.289 9.064c-0.256 0.25-0.396 0.583-0.396 0.938s0.141 0.688 0.396 0.938l0.814 0.794c0.256 0.25 0.597 0.387 0.96 0.387s0.705-0.137 0.961-0.387l9.29-9.064 9.289 9.064c0.256 0.25 0.597 0.387 0.961 0.387h0c0.364 0 0.705-0.137 0.961-0.387l0.814-0.794c0.256-0.25 0.397-0.583 0.397-0.938s-0.141-0.688-0.397-0.938l-9.289-9.064z"></path>
<path d="M1.949 0c-1.075 0-1.949 0.853-1.949 1.901s0.874 1.902 1.949 1.902c1.074 0 1.949-0.853 1.949-1.902s-0.874-1.901-1.949-1.901z"></path>
<path d="M32.756 0c-1.075 0-1.949 0.853-1.949 1.901s0.874 1.902 1.949 1.902c1.075 0 1.949-0.853 1.949-1.902s-0.874-1.901-1.949-1.901z"></path>
<path d="M32.756 28.121c-1.075 0-1.949 0.853-1.949 1.901s0.874 1.902 1.949 1.902c1.075 0 1.949-0.853 1.949-1.902s-0.874-1.901-1.949-1.901z"></path>
<path d="M1.949 28.121c-1.075 0-1.949 0.853-1.949 1.901s0.874 1.902 1.949 1.902c1.074 0 1.949-0.853 1.949-1.902s-0.874-1.901-1.949-1.901z"></path>
</symbol>
<symbol id="icon-heart" viewBox="0 0 32 32">
<path stroke-linejoin="round" stroke-linecap="round" stroke-miterlimit="4" stroke-width="2.6667" d="M27.787 6.147c-1.327-1.328-3.161-2.149-5.187-2.149s-3.859 0.821-5.187 2.149l-1.413 1.413-1.413-1.413c-1.327-1.327-3.161-2.148-5.187-2.148-4.051 0-7.335 3.284-7.335 7.335 0 2.026 0.821 3.859 2.148 5.187l11.787 11.787 11.787-11.787c1.328-1.327 2.149-3.161 2.149-5.187s-0.821-3.859-2.149-5.187l-0-0z"></path>
</symbol>
<symbol id="icon-call" viewBox="0 0 32 32">
<path d="M24.396 29.091l-4.387-7.738c-0.034-0.050-0.056-0.106-0.067-0.165s-0.009-0.12 0.004-0.178c0.014-0.059 0.039-0.113 0.075-0.162s0.081-0.088 0.134-0.118c0.052-0.030 0.11-0.048 0.17-0.055s0.12-0 0.177 0.018c0.057 0.018 0.11 0.048 0.155 0.087s0.082 0.088 0.108 0.142l4.387 7.738-0.756 0.431z"></path>
<path d="M14.336 10.909c-0.077-0.001-0.152-0.022-0.218-0.060s-0.121-0.094-0.16-0.161l-4.387-7.732 0.756-0.436 4.387 7.738c0.055 0.099 0.068 0.215 0.038 0.324s-0.103 0.201-0.201 0.258c-0.065 0.040-0.139 0.064-0.215 0.070z"></path>
<path d="M20.107 30.394c-0.644 0.011-1.287-0.059-1.914-0.209-6.255-1.728-14.47-16.221-12.742-22.47 0.787-2.214 2.295-4.099 4.282-5.353 0.384-0.227 0.774-0.431 1.164-0.617 0.358-0.163 0.764-0.186 1.137-0.064s0.688 0.379 0.882 0.721l3.287 5.818c0.109 0.191 0.177 0.402 0.199 0.621s-0.002 0.439-0.071 0.648c-0.070 0.209-0.183 0.401-0.331 0.564s-0.329 0.294-0.53 0.384c-0.32 0.14-0.634 0.285-0.937 0.442-1.321 0.663-2.077 1.263-2.252 1.786-0.401 1.245 0.076 3.351 1.216 5.364s2.676 3.491 3.962 3.764c0.378 0.087 1.164 0 2.688-1.007 0.291-0.18 0.582-0.378 0.867-0.582 0.179-0.127 0.383-0.215 0.598-0.259s0.437-0.041 0.652 0.007c0.214 0.048 0.416 0.14 0.593 0.27s0.324 0.297 0.432 0.488l3.293 5.818c0.197 0.342 0.257 0.746 0.17 1.131s-0.316 0.723-0.641 0.946c-0.355 0.233-0.733 0.465-1.129 0.681-1.512 0.757-3.185 1.136-4.876 1.105zM11.543 2.467c-0.097 0.002-0.192 0.024-0.279 0.064-0.361 0.169-0.727 0.367-1.088 0.582-1.791 1.139-3.157 2.836-3.887 4.829-0.733 2.659 0.553 7.482 3.276 12.282s6.202 8.384 8.861 9.123c2.083 0.4 4.239 0.105 6.138-0.838 0.372-0.204 0.727-0.419 1.059-0.64 0.142-0.1 0.242-0.25 0.28-0.42s0.010-0.348-0.076-0.499l-3.293-5.818c-0.048-0.085-0.113-0.158-0.191-0.216s-0.167-0.099-0.262-0.121c-0.1-0.023-0.203-0.024-0.303-0.004s-0.195 0.061-0.278 0.121c-0.297 0.209-0.582 0.413-0.896 0.582-1.478 0.954-2.543 1.309-3.351 1.129-1.542-0.349-3.235-1.914-4.527-4.189-1.007-1.745-1.868-4.282-1.286-6.063 0.25-0.774 1.105-1.507 2.682-2.327 0.314-0.163 0.646-0.314 0.977-0.46 0.091-0.040 0.172-0.099 0.239-0.172s0.118-0.159 0.151-0.253c0.032-0.096 0.044-0.197 0.034-0.297s-0.041-0.197-0.092-0.285l-3.293-5.818c-0.068-0.092-0.158-0.167-0.261-0.216s-0.217-0.073-0.332-0.069v-0.006z"></path>
</symbol>
<symbol id="icon-down" viewBox="0 0 32 32">
<path d="M16 25.12c-0.573 0-1.147-0.219-1.584-0.656l-13.759-13.759c-0.875-0.875-0.875-2.294 0-3.169s2.294-0.875 3.169 0l12.174 12.175 12.174-12.175c0.875-0.875 2.294-0.875 3.169 0s0.876 2.294 0 3.169l-13.759 13.759c-0.437 0.437-1.011 0.656-1.584 0.656z"></path>
</symbol>
<symbol id="icon-loupe" viewBox="0 0 32 32">
<path d="M31.609 29.724l-9.1-9.1c1.763-2.177 2.824-4.944 2.824-7.957 0-6.984-5.683-12.667-12.667-12.667s-12.666 5.683-12.666 12.666c0 6.984 5.683 12.667 12.667 12.667 3.013 0 5.78-1.061 7.957-2.824l9.1 9.1c0.26 0.26 0.601 0.391 0.943 0.391s0.683-0.131 0.943-0.391c0.521-0.521 0.521-1.364-0-1.885zM12.667 22.667c-5.515 0-10-4.485-10-10s4.485-10 10-10c5.515 0 10 4.485 10 10s-4.485 10-10 10z"></path>
</symbol>
<symbol id="icon-farmer" viewBox="0 0 32 32">
<path d="M15.2 8c-0.442 0-0.8 0.358-0.8 0.8s0.358 0.8 0.8 0.8c0.442 0 0.8-0.358 0.8-0.8s-0.358-0.8-0.8-0.8z"></path>
<path d="M20 8c-0.442 0-0.8 0.358-0.8 0.8s0.358 0.8 0.8 0.8c0.442 0 0.8-0.358 0.8-0.8s-0.358-0.8-0.8-0.8z"></path>
<path d="M12.8 23.467h1.067v1.067h-1.067v-1.067z"></path>
<path d="M21.333 23.467h1.067v1.067h-1.067v-1.067z"></path>
<path d="M12.8 30.4c0 0.141 0.056 0.277 0.156 0.377l1.067 1.067c0.1 0.1 0.236 0.156 0.377 0.156h6.4c0.141 0 0.277-0.056 0.377-0.156l1.067-1.067c0.1-0.1 0.156-0.236 0.156-0.377v-4.267c0-0.295-0.239-0.533-0.533-0.533h-8.533c-0.295 0-0.533 0.239-0.533 0.533v4.267zM13.867 26.667h7.467v3.513l-0.754 0.754h-5.958l-0.754-0.754v-3.513z"></path>
<path d="M4.8 24h-0.533c-0.295 0-0.533 0.239-0.533 0.533v5.333c0 0.295 0.239 0.533 0.533 0.533h0.533v1.6h1.067v-1.6h1.067v1.6h1.067v-0.037c1.032-0.131 1.98-0.635 2.667-1.417v1.454h1.067v-9.6h11.733v9.6h1.067v-3.733h2.667v3.733h1.067v-3.733h0.533c0.295 0 0.533-0.239 0.533-0.533v-2.133c0-0.295-0.239-0.533-0.533-0.533h-0.533v-4.8c-0.003-2.355-1.911-4.264-4.267-4.267h-2.667v-0.468c0.889-0.872 1.445-2.027 1.572-3.265h0.028c0.943-0.003 1.772-0.627 2.036-1.532 0.965-0.66 1.388-1.871 1.043-2.988s-1.377-1.879-2.546-1.88h-0.533v-2.411c0-1.44-0.437-2.433-1.338-3.033-0.413-0.276-0.899-0.423-1.396-0.422h-0.399c-0.497-0.001-0.983 0.146-1.396 0.422-0.487 0.326-1.122 0.326-1.609 0-0.413-0.276-0.899-0.423-1.396-0.422h-0.399c-0.497-0.001-0.983 0.146-1.396 0.422-0.901 0.601-1.338 1.592-1.338 3.033v2.411h-0.533c-0.579 0.002-1.141 0.194-1.6 0.547v-3.307c-0.002-0.825 0.326-1.617 0.91-2.198l-0.754-0.753c-0.786 0.781-1.226 1.845-1.223 2.953v4.358c-0.003 0.676-0.43 1.277-1.067 1.502v-5.86c-0.002-0.825 0.326-1.617 0.91-2.198l-0.754-0.754c-0.786 0.781-1.226 1.845-1.223 2.953v5.958h-1.067v-5.958c-0.002-0.825 0.326-1.617 0.91-2.198l-0.754-0.754c-0.786 0.781-1.226 1.845-1.223 2.953v5.86c-0.637-0.225-1.064-0.826-1.067-1.502v-4.358c-0.002-0.825 0.326-1.617 0.91-2.198l-0.754-0.754c-0.786 0.781-1.226 1.845-1.223 2.953v4.358c0.002 1.267 0.893 2.358 2.133 2.613v13.92zM5.867 12.267h1.067v11.733h-1.067v-11.733zM9.067 26.133h1.6v1.067h-1.6v-1.067zM10.667 21.867v3.2h-1.698c-0.161-0.452-0.517-0.807-0.969-0.969v-3.831c0.003-1.56 1.129-2.891 2.667-3.152v4.752zM5.333 29.333h-0.533v-4.267h2.667c0.295 0 0.533 0.239 0.533 0.533v3.2c0 0.295-0.239 0.533-0.533 0.533h-2.133zM8 30.885v-0.583c0.637-0.225 1.064-0.826 1.067-1.502v-0.533h1.556c-0.23 1.341-1.281 2.39-2.622 2.618zM11.733 21.333v-4.267h1.067v4.267h-1.067zM14.027 17.067c0.202 0.673 0.591 1.276 1.12 1.739l1.513 2.528h-2.793v-4.267h0.16zM17.6 18.667c-1.472-0.002-2.665-1.195-2.667-2.667v-2.133c0-1.473 1.194-2.667 2.667-2.667s2.667 1.194 2.667 2.667v2.133c-0.002 1.472-1.195 2.665-2.667 2.667zM18.284 19.668l-0.684 1.157-0.693-1.159c0.228 0.044 0.46 0.067 0.693 0.068 0.229-0.001 0.458-0.023 0.684-0.066zM28.267 27.2h-3.733v-1.067h3.733v1.067zM27.2 20.267v4.8h-2.667v-7.952c1.538 0.261 2.664 1.592 2.667 3.152zM23.467 17.067v4.267h-1.067v-4.267h1.067zM21.333 17.067v4.267h-2.797l1.476-2.489c0.552-0.467 0.956-1.085 1.164-1.778h0.157zM21.33 13.797c-0.034-2.035-1.694-3.667-3.73-3.667s-3.695 1.632-3.73 3.667c-0.351-0.631-0.535-1.341-0.537-2.064v-4.8h8.533v4.8c-0.002 0.722-0.186 1.432-0.537 2.064zM22.933 11.2v-2.133c0.589 0 1.067 0.478 1.067 1.067s-0.478 1.067-1.067 1.067zM23.467 6.933c0.56 0 1.078 0.293 1.368 0.772s0.308 1.074 0.049 1.57c-0.34-0.774-1.105-1.274-1.95-1.275v-1.067h0.533zM14.196 1.31c0.238-0.159 0.518-0.244 0.804-0.244h0.399c0.287-0 0.566 0.085 0.804 0.244 0.845 0.565 1.948 0.565 2.793 0 0.238-0.159 0.518-0.244 0.804-0.244h0.399c0.287-0 0.566 0.085 0.804 0.244 0.37 0.246 0.863 0.738 0.863 2.145v0.278h-8.533v-0.278c0-1.408 0.493-1.899 0.863-2.145zM13.333 4.8h8.533v1.067h-8.533v-1.067zM11.733 6.933h0.533v1.067c-0.842 0.002-1.604 0.498-1.946 1.268-0.264-0.494-0.248-1.090 0.041-1.569s0.811-0.77 1.371-0.765zM11.2 10.133c0-0.589 0.478-1.067 1.067-1.067v2.133c-0.589 0-1.067-0.478-1.067-1.067zM9.235 9.447c0.191 0.519 0.538 0.966 0.994 1.28 0.262 0.909 1.092 1.536 2.038 1.539h0.028c0.127 1.238 0.683 2.393 1.572 3.265v0.468h-2.667c-1.226 0.001-2.393 0.531-3.2 1.454v-7.374c0.46-0.097 0.887-0.316 1.235-0.633zM6.933 11.2h-1.067v-1.067h1.067v1.067z"></path>
<path d="M16.913 12.427l-0.758 0.747c0.353 0.437 0.884 0.692 1.446 0.692s1.093-0.255 1.446-0.692l-0.758-0.747c-0.151 0.233-0.41 0.373-0.687 0.373s-0.536-0.141-0.687-0.373z"></path>
</symbol>
<symbol id="icon-trees" viewBox="0 0 32 32">
<path d="M25.333 27.133v-4.467c1.442-0.132 2.813-0.687 3.939-1.597s1.959-2.132 2.391-3.514c0.433-1.382 0.447-2.861 0.040-4.25s-1.215-2.628-2.324-3.559c0.697-0.885 1.131-1.948 1.252-3.068s-0.075-2.251-0.567-3.264-1.259-1.868-2.213-2.466c-0.955-0.598-2.058-0.915-3.185-0.915s-2.23 0.317-3.185 0.915c-0.955 0.598-1.722 1.452-2.213 2.466s-0.688 2.145-0.567 3.264c0.121 1.12 0.555 2.183 1.252 3.068-1.109 0.931-1.918 2.169-2.324 3.559s-0.392 2.869 0.040 4.25c0.433 1.382 1.265 2.604 2.391 3.514s2.497 1.465 3.939 1.597v4c-5.195-1.72-10.805-1.72-16 0v-4c1.442-0.132 2.812-0.687 3.939-1.597s1.959-2.132 2.391-3.514c0.433-1.382 0.447-2.861 0.040-4.25s-1.215-2.628-2.324-3.559c0.591-0.75 0.994-1.631 1.177-2.569s0.138-1.905-0.13-2.823c-0.267-0.917-0.75-1.757-1.407-2.45s-1.471-1.219-2.373-1.535c-0.902-0.315-1.866-0.411-2.812-0.279s-1.847 0.489-2.627 1.039c-0.781 0.551-1.418 1.28-1.86 2.127s-0.675 1.787-0.681 2.742c-0.004 1.348 0.45 2.657 1.287 3.713-1.12 0.928-1.939 2.169-2.353 3.564s-0.402 2.881 0.031 4.27 1.271 2.617 2.405 3.529c1.134 0.912 2.514 1.465 3.963 1.591v4.467c-2.303 0.91-4.463 2.147-6.413 3.673-0.11 0.085-0.191 0.203-0.23 0.337s-0.036 0.276 0.009 0.408c0.046 0.132 0.131 0.246 0.245 0.326s0.25 0.123 0.389 0.122h30.667c0.139 0.001 0.276-0.042 0.389-0.122s0.199-0.195 0.245-0.326c0.046-0.132 0.049-0.274 0.009-0.408s-0.12-0.251-0.23-0.337c-1.95-1.527-4.11-2.764-6.413-3.673zM18.667 15.333c0.003-0.984 0.247-1.952 0.712-2.82s1.136-1.607 1.955-2.154c0.080-0.057 0.146-0.132 0.193-0.218s0.076-0.182 0.082-0.28c0.006-0.098-0.009-0.196-0.045-0.288s-0.092-0.174-0.164-0.241c-0.662-0.649-1.116-1.48-1.303-2.388s-0.101-1.851 0.25-2.709c0.35-0.858 0.949-1.593 1.718-2.109s1.675-0.793 2.602-0.793 1.833 0.276 2.602 0.793c0.769 0.517 1.367 1.251 1.718 2.109s0.437 1.801 0.25 2.709c-0.188 0.908-0.641 1.739-1.303 2.388-0.072 0.067-0.127 0.15-0.164 0.241s-0.051 0.19-0.045 0.288c0.006 0.098 0.034 0.194 0.082 0.28s0.114 0.16 0.193 0.218c0.863 0.576 1.561 1.366 2.027 2.293s0.684 1.958 0.632 2.994c-0.051 1.036-0.371 2.041-0.927 2.917s-1.329 1.593-2.244 2.080c-0.915 0.488-1.942 0.73-2.979 0.703s-2.049-0.323-2.938-0.858c-0.889-0.535-1.623-1.291-2.133-2.195s-0.775-1.924-0.773-2.961zM1.333 15.333c0.003-0.984 0.247-1.952 0.712-2.82s1.136-1.607 1.954-2.154c0.080-0.057 0.146-0.132 0.193-0.218s0.076-0.182 0.082-0.28c0.006-0.098-0.009-0.196-0.045-0.288s-0.092-0.174-0.164-0.241c-0.662-0.649-1.116-1.48-1.303-2.388s-0.101-1.851 0.25-2.709c0.35-0.858 0.949-1.593 1.718-2.109s1.675-0.793 2.602-0.793c0.927 0 1.833 0.276 2.602 0.793s1.367 1.251 1.718 2.109c0.35 0.858 0.437 1.801 0.25 2.709s-0.641 1.739-1.303 2.388c-0.072 0.067-0.128 0.15-0.164 0.241s-0.052 0.19-0.045 0.288c0.006 0.098 0.034 0.194 0.082 0.28s0.114 0.16 0.193 0.218c0.862 0.576 1.561 1.366 2.027 2.293s0.684 1.958 0.632 2.994c-0.052 1.036-0.371 2.041-0.927 2.917s-1.329 1.593-2.244 2.080c-0.915 0.488-1.942 0.73-2.978 0.703s-2.049-0.323-2.938-0.858c-0.889-0.535-1.623-1.291-2.133-2.195s-0.775-1.924-0.773-2.961zM2.74 30.667c3.939-2.59 8.549-3.97 13.263-3.97s9.325 1.38 13.263 3.97h-26.527z"></path>
<path d="M6.86 9.807c0.062 0.062 0.136 0.112 0.217 0.146s0.168 0.051 0.256 0.051c0.088 0 0.175-0.017 0.256-0.051s0.155-0.083 0.217-0.146l2-2c0.126-0.126 0.196-0.296 0.196-0.473s-0.071-0.348-0.196-0.473c-0.126-0.126-0.296-0.196-0.473-0.196s-0.348 0.071-0.473 0.196l-1.527 1.533-1.527-1.533c-0.126-0.126-0.296-0.196-0.473-0.196s-0.348 0.071-0.473 0.196c-0.126 0.126-0.196 0.296-0.196 0.473s0.071 0.348 0.196 0.473l2 2z"></path>
<path d="M6.86 14.473c0.062 0.062 0.136 0.112 0.217 0.146s0.168 0.051 0.256 0.051c0.088 0 0.175-0.017 0.256-0.051s0.155-0.083 0.217-0.146l2-2c0.062-0.062 0.111-0.136 0.145-0.217s0.051-0.168 0.051-0.256c0-0.088-0.017-0.175-0.051-0.256s-0.083-0.155-0.145-0.217c-0.062-0.062-0.136-0.111-0.217-0.145s-0.168-0.051-0.256-0.051c-0.088 0-0.175 0.017-0.256 0.051s-0.155 0.083-0.217 0.145l-1.527 1.533-1.527-1.533c-0.062-0.062-0.136-0.111-0.217-0.145s-0.168-0.051-0.256-0.051c-0.088 0-0.175 0.017-0.256 0.051s-0.155 0.083-0.217 0.145c-0.062 0.062-0.111 0.136-0.145 0.217s-0.051 0.168-0.051 0.256c0 0.088 0.017 0.175 0.051 0.256s0.083 0.155 0.145 0.217l2 2z"></path>
<path d="M7.807 19.14l2-2c0.126-0.126 0.196-0.296 0.196-0.473s-0.071-0.348-0.196-0.473c-0.126-0.126-0.296-0.196-0.473-0.196s-0.348 0.071-0.473 0.196l-1.527 1.533-1.527-1.533c-0.062-0.062-0.136-0.111-0.217-0.145s-0.168-0.051-0.256-0.051-0.175 0.017-0.256 0.051c-0.081 0.034-0.155 0.083-0.217 0.145s-0.111 0.136-0.145 0.217c-0.034 0.081-0.051 0.168-0.051 0.256s0.017 0.175 0.051 0.256 0.083 0.155 0.145 0.217l2 2c0.062 0.062 0.136 0.112 0.217 0.146s0.168 0.051 0.256 0.051c0.088 0 0.175-0.017 0.256-0.051s0.155-0.083 0.217-0.146z"></path>
<path d="M24.193 9.807c0.062 0.062 0.136 0.112 0.217 0.146s0.168 0.051 0.256 0.051c0.088 0 0.175-0.017 0.256-0.051s0.155-0.083 0.217-0.146l2-2c0.125-0.126 0.196-0.296 0.196-0.473s-0.071-0.348-0.196-0.473c-0.126-0.126-0.296-0.196-0.473-0.196s-0.348 0.071-0.473 0.196l-1.527 1.533-1.527-1.533c-0.126-0.126-0.296-0.196-0.473-0.196s-0.348 0.071-0.473 0.196c-0.126 0.126-0.196 0.296-0.196 0.473s0.071 0.348 0.196 0.473l2 2z"></path>
<path d="M24.193 14.473c0.062 0.062 0.136 0.112 0.217 0.146s0.168 0.051 0.256 0.051c0.088 0 0.175-0.017 0.256-0.051s0.155-0.083 0.217-0.146l2-2c0.125-0.126 0.196-0.296 0.196-0.473s-0.071-0.348-0.196-0.473c-0.126-0.126-0.296-0.196-0.473-0.196s-0.348 0.071-0.473 0.196l-1.527 1.533-1.527-1.533c-0.126-0.126-0.296-0.196-0.473-0.196s-0.348 0.071-0.473 0.196c-0.126 0.126-0.196 0.296-0.196 0.473s0.071 0.348 0.196 0.473l2 2z"></path>
<path d="M25.14 19.14l2-2c0.125-0.126 0.196-0.296 0.196-0.473s-0.071-0.348-0.196-0.473c-0.126-0.126-0.296-0.196-0.473-0.196s-0.348 0.071-0.473 0.196l-1.527 1.533-1.527-1.533c-0.126-0.126-0.296-0.196-0.473-0.196s-0.348 0.071-0.473 0.196c-0.126 0.125-0.196 0.296-0.196 0.473s0.071 0.348 0.196 0.473l2 2c0.062 0.062 0.136 0.112 0.217 0.146s0.168 0.051 0.256 0.051c0.088 0 0.175-0.017 0.256-0.051s0.155-0.083 0.217-0.146z"></path>
</symbol>
<symbol id="icon-fertilizer" viewBox="0 0 32 32">
<path d="M24.86 28.157h-0.133c0 0.151 0.060 0.297 0.167 0.404s0.252 0.167 0.404 0.167 0.297-0.060 0.404-0.167c0.107-0.107 0.167-0.252 0.167-0.404v-0c-0.001-0.542-0.216-1.061-0.599-1.445s-0.903-0.599-1.445-0.599h-0c-0.151 0-0.297 0.060-0.404 0.167s-0.167 0.252-0.167 0.404 0.060 0.297 0.167 0.404c0.107 0.107 0.252 0.167 0.404 0.167v-0.133M24.86 28.157l-0.133 0c-0-0.239-0.096-0.469-0.265-0.638s-0.399-0.265-0.638-0.265l0-0.133M24.86 28.157c-0-0.275-0.11-0.538-0.304-0.732s-0.457-0.303-0.732-0.304M24.86 28.157c0 0.116 0.046 0.227 0.128 0.309s0.193 0.128 0.309 0.128 0.227-0.046 0.309-0.128c0.082-0.082 0.128-0.193 0.128-0.309-0.001-0.507-0.202-0.992-0.56-1.351s-0.844-0.56-1.351-0.56c-0.116 0-0.227 0.046-0.309 0.128s-0.128 0.193-0.128 0.309 0.046 0.227 0.128 0.309c0.082 0.082 0.193 0.128 0.309 0.128"></path>
<path d="M21.277 25.064v0.133c0.151 0 0.297-0.060 0.404-0.167s0.167-0.252 0.167-0.404c0-0.151-0.060-0.297-0.167-0.404s-0.252-0.167-0.404-0.167h-0l-1.055 2.064 0.133 0c0 0 0 0 0 0 0-0.245 0.097-0.479 0.27-0.652s0.407-0.27 0.652-0.271l-0-0.133zM21.277 25.064c0.116 0 0.227-0.046 0.309-0.128s0.128-0.193 0.128-0.309c0-0.116-0.046-0.227-0.128-0.309s-0.193-0.128-0.309-0.128v0.875z"></path>
<path d="M16.179 16.035v-0c0-0.151-0.060-0.297-0.167-0.404s-0.252-0.167-0.404-0.167h-0c-0.508 0-1.010 0.109-1.472 0.318-0.361 0.163-0.691 0.384-0.978 0.654v-0.41c0.592-0.678 0.908-1.554 0.883-2.455-0.025-0.918-0.401-1.791-1.051-2.44-0.107-0.107-0.252-0.167-0.404-0.167s-0.297 0.060-0.404 0.167l-0 0c-0.648 0.65-1.022 1.523-1.047 2.44-0.024 0.9 0.29 1.776 0.88 2.454v0.411c-0.287-0.27-0.618-0.491-0.978-0.654-0.463-0.209-0.965-0.317-1.472-0.317h-0c-0.151 0-0.297 0.060-0.404 0.167s-0.167 0.252-0.167 0.404v0c0.001 0.873 0.321 1.716 0.898 2.371 0.551 0.626 1.302 1.039 2.123 1.172v0.887c0 0.151 0.060 0.297 0.167 0.404s0.252 0.167 0.404 0.167c0.151 0 0.297-0.060 0.404-0.167s0.167-0.252 0.167-0.404v-0.887c0.821-0.133 1.572-0.546 2.124-1.172 0.577-0.655 0.897-1.498 0.898-2.371zM12.277 11.225c-0.624 0.626-0.985 1.466-1.008 2.35s0.291 1.742 0.88 2.4l0.128-4.75zM12.273 13.671c-0-0.422 0.108-0.835 0.313-1.201 0.206 0.366 0.314 0.78 0.314 1.202s-0.109 0.835-0.314 1.201c-0.205-0.366-0.314-0.78-0.314-1.202zM13.875 17.325c0.298-0.298 0.667-0.514 1.071-0.628-0.114 0.404-0.329 0.773-0.627 1.071s-0.667 0.514-1.071 0.628c0.114-0.404 0.329-0.773 0.627-1.071zM11.297 17.325c0.298 0.298 0.514 0.667 0.627 1.070-0.403-0.114-0.772-0.329-1.070-0.627s-0.514-0.667-0.627-1.070c0.403 0.114 0.772 0.329 1.070 0.627z"></path>
<path d="M5.723 16v0c-0 1.357 0.402 2.685 1.157 3.813s1.826 2.009 3.080 2.528 2.634 0.655 3.966 0.391c1.331-0.265 2.554-0.919 3.514-1.878s1.614-2.183 1.879-3.514c0.265-1.331 0.129-2.711-0.391-3.966s-1.399-2.326-2.528-3.080c-1.129-0.754-2.456-1.157-3.813-1.157h-0c-1.82 0.002-3.564 0.726-4.851 2.012s-2.010 3.031-2.013 4.851zM12.586 10.278c1.132 0 2.238 0.336 3.179 0.964s1.674 1.522 2.107 2.568c0.433 1.045 0.546 2.196 0.326 3.306s-0.766 2.129-1.566 2.93c-0.8 0.8-1.82 1.345-2.93 1.566s-2.26 0.107-3.306-0.326-1.939-1.166-2.568-2.107c-0.629-0.941-0.964-2.047-0.964-3.179 0.002-1.517 0.605-2.971 1.678-4.044s2.527-1.676 4.044-1.678z"></path>
<path d="M29.165 27.975c-0.047-0.588-0.277-1.147-0.659-1.598s-0.894-0.771-1.467-0.915c0-0.022 0-0.044 0-0.066-0.001-0.706-0.268-1.385-0.747-1.903s-1.136-0.836-1.84-0.891c-0.023-0.098-0.050-0.194-0.083-0.288 0.273-2.060 0.419-4.134 0.437-6.212v-0.206c0-5.255-1.236-11.207-1.355-11.77v-2.55c0-0.116-0.046-0.227-0.128-0.309s-0.193-0.128-0.309-0.128h-20.082c-0.057-0-0.114 0.011-0.167 0.033s-0.101 0.054-0.142 0.095c-0.041 0.041-0.073 0.089-0.095 0.142s-0.033 0.11-0.033 0.167v2.55c-0.12 0.564-1.355 6.515-1.355 11.77v0.206c0 5.255 1.236 11.206 1.355 11.77v2.55c-0 0.057 0.011 0.114 0.033 0.167s0.054 0.101 0.095 0.142c0.041 0.041 0.089 0.073 0.142 0.095s0.11 0.033 0.167 0.033h27.491c0.057 0 0.114-0.011 0.167-0.033s0.101-0.054 0.142-0.095c0.041-0.041 0.073-0.089 0.095-0.142s0.033-0.11 0.033-0.167c0.003-0.533-0.159-1.053-0.462-1.491s-0.734-0.772-1.233-0.957zM3.37 2.014h19.207v1.722h-19.207v-1.722zM2.014 15.897c0-4.671 0.996-9.916 1.275-11.286h19.369c0.277 1.37 1.275 6.615 1.275 11.286v0.206c-0.011 1.679-0.113 3.357-0.304 5.025-0.384-0.377-0.861-0.644-1.383-0.776s-1.069-0.121-1.586 0.029c-0.517 0.15-0.984 0.435-1.354 0.825s-0.63 0.872-0.752 1.396c-0.703 0.056-1.359 0.375-1.838 0.893s-0.745 1.197-0.746 1.902c0 0.022 0 0.044 0 0.066-0.473 0.12-0.908 0.36-1.261 0.697s-0.613 0.76-0.754 1.228h-10.667c-0.278-1.37-1.275-6.616-1.275-11.286l0.001-0.205zM3.37 28.264h9.917c-0.291 0.197-0.538 0.452-0.728 0.748s-0.317 0.627-0.374 0.974h-8.816v-1.722zM17.879 29.986c0.087-0.219 0.238-0.407 0.434-0.54s0.426-0.204 0.662-0.204c0.116 0 0.227-0.046 0.309-0.128s0.128-0.193 0.128-0.309-0.046-0.227-0.128-0.309c-0.082-0.082-0.193-0.128-0.309-0.128-0.469 0.001-0.924 0.162-1.289 0.456s-0.619 0.705-0.719 1.163h-3.888c0.079-0.309 0.243-0.59 0.472-0.812s0.515-0.376 0.827-0.445c0.1-0.023 0.189-0.080 0.252-0.162s0.094-0.183 0.089-0.286l-0.003-0.048c0-0.016-0.003-0.032-0.003-0.049 0.002-0.483 0.185-0.948 0.513-1.303s0.776-0.575 1.258-0.617c0.061-0.005 0.12-0.023 0.174-0.052s0.101-0.069 0.138-0.118c0.037-0.049 0.064-0.104 0.078-0.164s0.016-0.121 0.005-0.181c-0.022-0.115-0.033-0.233-0.034-0.35 0.001-0.511 0.204-1.002 0.565-1.363s0.852-0.565 1.363-0.565c0.029 0 0.058 0.002 0.087 0.004l0.038 0.003c0.113 0.007 0.225-0.030 0.311-0.104s0.141-0.178 0.151-0.291c0.051-0.533 0.299-1.027 0.696-1.387s0.912-0.559 1.447-0.559c0.535 0 1.051 0.199 1.447 0.559s0.644 0.854 0.696 1.387c0.011 0.113 0.065 0.218 0.152 0.292s0.199 0.111 0.313 0.103l0.032-0.002c0.032-0.002 0.063-0.005 0.095-0.005 0.283-0.001 0.563 0.060 0.82 0.18s0.484 0.295 0.665 0.513c0.181 0.218 0.312 0.473 0.383 0.747s0.080 0.561 0.027 0.839c-0.011 0.060-0.009 0.122 0.005 0.181s0.041 0.115 0.078 0.164c0.037 0.049 0.084 0.089 0.138 0.118s0.113 0.047 0.174 0.052c0.482 0.041 0.93 0.261 1.258 0.616s0.511 0.82 0.513 1.304c0 0.016 0 0.031-0.002 0.047l-0.003 0.050c-0.005 0.103 0.026 0.204 0.089 0.286s0.151 0.139 0.251 0.162c0.311 0.069 0.598 0.223 0.827 0.445s0.393 0.503 0.472 0.812l-12.052-0.001z"></path>
<path stroke-linejoin="miter" stroke-linecap="butt" stroke-miterlimit="4" stroke-width="0.5333" d="M29.165 27.975c-0.047-0.588-0.277-1.147-0.659-1.598s-0.894-0.771-1.467-0.915c0-0.022 0-0.044 0-0.066-0.001-0.706-0.268-1.385-0.747-1.903s-1.136-0.836-1.84-0.891c-0.023-0.098-0.050-0.194-0.083-0.288 0.273-2.060 0.419-4.134 0.437-6.212v-0.206c0-5.255-1.236-11.207-1.355-11.77v-2.55c0-0.116-0.046-0.227-0.128-0.309s-0.193-0.128-0.309-0.128h-20.082c-0.057-0-0.114 0.011-0.167 0.033s-0.101 0.054-0.142 0.095c-0.041 0.041-0.073 0.089-0.095 0.142s-0.033 0.11-0.033 0.167v2.55c-0.12 0.564-1.355 6.515-1.355 11.77v0.206c0 5.255 1.236 11.206 1.355 11.77v2.55c-0 0.057 0.011 0.114 0.033 0.167s0.054 0.101 0.095 0.142c0.041 0.041 0.089 0.073 0.142 0.095s0.11 0.033 0.167 0.033h27.491c0.057 0 0.114-0.011 0.167-0.033s0.101-0.054 0.142-0.095c0.041-0.041 0.073-0.089 0.095-0.142s0.033-0.11 0.033-0.167c0.003-0.533-0.159-1.053-0.462-1.491s-0.734-0.772-1.233-0.957zM3.37 2.014h19.207v1.722h-19.207v-1.722zM2.014 15.897c0-4.671 0.996-9.916 1.275-11.286h19.369c0.277 1.37 1.275 6.615 1.275 11.286v0.206c-0.011 1.679-0.113 3.357-0.304 5.025-0.384-0.377-0.861-0.644-1.383-0.776s-1.069-0.121-1.586 0.029c-0.517 0.15-0.984 0.435-1.354 0.825s-0.63 0.872-0.752 1.396c-0.703 0.056-1.359 0.375-1.838 0.893s-0.745 1.197-0.746 1.902c0 0.022 0 0.044 0 0.066-0.473 0.12-0.908 0.36-1.261 0.697s-0.613 0.76-0.754 1.228h-10.667c-0.278-1.37-1.275-6.616-1.275-11.286l0.001-0.205zM3.37 28.264h9.917c-0.291 0.197-0.538 0.452-0.728 0.748s-0.317 0.627-0.374 0.974h-8.816v-1.722zM17.879 29.986c0.087-0.219 0.238-0.407 0.434-0.54s0.426-0.204 0.662-0.204c0.116 0 0.227-0.046 0.309-0.128s0.128-0.193 0.128-0.309-0.046-0.227-0.128-0.309c-0.082-0.082-0.193-0.128-0.309-0.128-0.469 0.001-0.924 0.162-1.289 0.456s-0.619 0.705-0.719 1.163h-3.888c0.079-0.309 0.243-0.59 0.472-0.812s0.515-0.376 0.827-0.445c0.1-0.023 0.189-0.080 0.252-0.162s0.094-0.183 0.089-0.286l-0.003-0.048c0-0.016-0.003-0.032-0.003-0.049 0.002-0.483 0.185-0.948 0.513-1.303s0.776-0.575 1.258-0.617c0.061-0.005 0.12-0.023 0.174-0.052s0.101-0.069 0.138-0.118c0.037-0.049 0.064-0.104 0.078-0.164s0.016-0.121 0.005-0.181c-0.022-0.115-0.033-0.233-0.034-0.35 0.001-0.511 0.204-1.002 0.565-1.363s0.852-0.565 1.363-0.565c0.029 0 0.058 0.002 0.087 0.004l0.038 0.003c0.113 0.007 0.225-0.030 0.311-0.104s0.141-0.178 0.151-0.291c0.051-0.533 0.299-1.027 0.696-1.387s0.912-0.559 1.447-0.559c0.535 0 1.051 0.199 1.447 0.559s0.644 0.854 0.696 1.387c0.011 0.113 0.065 0.218 0.152 0.292s0.199 0.111 0.313 0.103l0.032-0.002c0.032-0.002 0.063-0.005 0.095-0.005 0.283-0.001 0.563 0.060 0.82 0.18s0.484 0.295 0.665 0.513c0.181 0.218 0.312 0.473 0.383 0.747s0.080 0.561 0.027 0.839c-0.011 0.060-0.009 0.122 0.005 0.181s0.041 0.115 0.078 0.164c0.037 0.049 0.084 0.089 0.138 0.118s0.113 0.047 0.174 0.052c0.482 0.041 0.93 0.261 1.258 0.616s0.511 0.82 0.513 1.304c0 0.016 0 0.031-0.002 0.047l-0.003 0.050c-0.005 0.103 0.026 0.204 0.089 0.286s0.151 0.139 0.251 0.162c0.311 0.069 0.598 0.223 0.827 0.445s0.393 0.503 0.472 0.812l-12.052-0.001z"></path>
<path d="M5.112 6.858h3.638c0.151 0 0.297-0.060 0.404-0.167s0.167-0.252 0.167-0.404c0-0.151-0.060-0.297-0.167-0.404s-0.252-0.167-0.404-0.167h-3.638c-0.151 0-0.297 0.060-0.404 0.167s-0.167 0.252-0.167 0.404c0 0.151 0.060 0.297 0.167 0.404s0.252 0.167 0.404 0.167z"></path>
<path d="M10.505 6.858h0.995c0.151 0 0.297-0.060 0.404-0.167s0.167-0.252 0.167-0.404c0-0.151-0.060-0.297-0.167-0.404s-0.252-0.167-0.404-0.167h-0.995c-0.151 0-0.297 0.060-0.404 0.167s-0.167 0.252-0.167 0.404c0 0.151 0.060 0.297 0.167 0.404s0.252 0.167 0.404 0.167z"></path>
</symbol>
<symbol id="icon-sapling" viewBox="0 0 32 32">
<path d="M4.491 25.507l3.009 1.504v3.364c0 0.345 0.28 0.625 0.625 0.625h6.625c0.345 0 0.625-0.28 0.625-0.625v-8.159c0-1.915-1.436-3.503-3.337-3.693-0.007-0.002-2.644-0.414-3.867-1.637l-1.404-1.403c-0.472-0.472-1.1-0.733-1.768-0.733v-5c0-1.379-1.122-2.5-2.5-2.5s-2.5 1.121-2.5 2.5v8.49c0 1.51 0.42 2.987 1.213 4.271s1.927 2.32 3.278 2.996zM1.25 9.75c0-0.689 0.561-1.25 1.25-1.25s1.25 0.561 1.25 1.25v5.335c-0.762 0.441-1.25 1.263-1.25 2.165 0 0.667 0.26 1.295 0.732 1.767l3.201 3.201c0.244 0.244 0.64 0.244 0.884 0s0.244-0.64 0-0.884l-3.201-3.201c-0.236-0.236-0.366-0.55-0.366-0.884 0-0.529 0.335-1.003 0.833-1.179 0-0 0-0 0.001-0h0c0.431-0.153 0.942-0.062 1.3 0.295l1.404 1.403c1.449 1.449 4.615 1.994 4.622 1.996 1.263 0.127 2.216 1.18 2.216 2.45v7.534h-5.375v-3.125c0-0.237-0.134-0.453-0.345-0.559l-3.354-1.677c-2.344-1.172-3.8-3.528-3.8-6.149v-8.49z"></path>
<path d="M15.375 15.375c0 0.345 0.28 0.625 0.625 0.625s0.625-0.28 0.625-0.625v-1.875h2.392c3.506 0 6.357-2.852 6.357-6.357v-3.018c0-0.253-0.152-0.481-0.386-0.577s-0.502-0.043-0.681 0.135c-0.688 0.688-1.603 1.067-2.575 1.067-2.090 0-3.948 1.014-5.107 2.576v-5.701c0-0.345-0.28-0.625-0.625-0.625s-0.625 0.28-0.625 0.625v3.201c-1.159-1.562-3.017-2.576-5.107-2.576-0.973 0-1.888-0.379-2.576-1.067-0.179-0.179-0.448-0.232-0.681-0.135s-0.386 0.325-0.386 0.577v3.018c0 3.506 2.852 6.357 6.357 6.357h2.392v4.375zM21.733 6c0.851 0 1.67-0.216 2.393-0.622v1.765c0 2.816-2.291 5.107-5.108 5.107h-1.143l3.5-2.625c0.276-0.207 0.332-0.599 0.125-0.875s-0.599-0.332-0.875-0.125l-4 3v-0.518c0-2.816 2.291-5.107 5.107-5.107zM7.875 4.643v-1.765c0.723 0.406 1.541 0.622 2.393 0.622 2.816 0 5.107 2.291 5.107 5.108v0.518l-4-3c-0.276-0.207-0.668-0.151-0.875 0.125s-0.151 0.668 0.125 0.875l3.5 2.625h-1.143c-2.816 0-5.107-2.291-5.107-5.107z"></path>
<path d="M28.687 24.625c0.345 0 0.625-0.28 0.625-0.625s-0.28-0.625-0.625-0.625c-0.345 0-0.625 0.28-0.625 0.625s0.28 0.625 0.625 0.625z"></path>
<path d="M29.5 7.25c-1.379 0-2.5 1.121-2.5 2.5v5c-0.668 0-1.295 0.26-1.767 0.732l-1.404 1.403c-1.196 1.196-3.856 1.634-3.862 1.636-1.905 0.191-3.341 1.779-3.341 3.694v8.159c0 0.345 0.28 0.625 0.625 0.625h6.625c0.345 0 0.625-0.28 0.625-0.625v-3.364l2.046-1.023c0.309-0.154 0.434-0.53 0.28-0.839s-0.53-0.434-0.839-0.28l-2.391 1.195c-0.212 0.106-0.345 0.322-0.345 0.559v3.125h-5.375v-7.534c0-1.27 0.953-2.323 2.221-2.451 0.006-0.002 3.089-0.468 4.617-1.996l1.404-1.403c0.358-0.358 0.87-0.448 1.3-0.295v0c0 0 0 0 0.001 0 0.498 0.176 0.833 0.65 0.833 1.179 0 0.334-0.13 0.647-0.366 0.884l-3.201 3.201c-0.244 0.244-0.244 0.64 0 0.884s0.64 0.244 0.884-0l3.201-3.201c0.472-0.472 0.732-1.1 0.732-1.768 0-0.902-0.488-1.724-1.25-2.165v-5.335c0-0.689 0.561-1.25 1.25-1.25s1.25 0.561 1.25 1.25v8.49c0 1.143-0.289 2.279-0.835 3.283-0.165 0.303-0.053 0.683 0.251 0.848s0.683 0.053 0.848-0.251c0.645-1.187 0.986-2.529 0.986-3.88v-8.49c0-1.379-1.121-2.5-2.5-2.5z"></path>
</symbol>
<symbol id="icon-seeds" viewBox="0 0 32 32">
<path d="M14.179 7.27c0.281-0.178 0.365-0.55 0.187-0.831-1.605-2.536-3.326-3.868-5.124-3.868-1.329 0-2.631 0.742-3.869 2.162-1.031 1.182-2.001 2.805-2.886 4.82-1.541 3.507-2.621 7.821-2.621 10.499 0 5.17 4.206 9.376 9.376 9.376 1.195 0 2.339-0.225 3.392-0.635 1.049 0.385 2.138 0.577 3.226 0.577 1.304 0 2.605-0.276 3.83-0.825 1.874-0.839 4.459-2.714 6.751-4.888v0c0.241-0.229 0.251-0.61 0.022-0.851v0l-12.355-15.648M14.179 7.27l-0.071-0.113M14.179 7.27c0-0 0-0 0-0l-0.071-0.113M14.179 7.27c-0.281 0.178-0.653 0.094-0.831-0.187l0.113-0.071c0.139 0.219 0.428 0.284 0.647 0.145M19.198 27.447v0c1.719-0.769 4.238-2.598 6.414-4.663 0 0 0 0 0-0l0.092 0.097-6.506 4.566zM19.198 27.447c-1.585 0.71-3.314 0.895-4.981 0.55M19.198 27.447l-4.981 0.55M14.217 27.996c0.722-0.454 1.378-1.003 1.95-1.629 3.801-0.505 6.52-3.237 6.637-3.356h0c0.233-0.237 0.229-0.619-0.008-0.851v-0c-0.237-0.233-0.619-0.229-0.851 0.008l-7.727 5.829z"></path>
<path d="M15.389 8.259v0c0.305 0.608 0.6 1.256 0.878 1.931 2.971-0.585 6.243-0.798 8.856-0.566 3.529 0.313 5.873 1.404 6.685 3.217M15.389 8.259l16.298 4.637M15.389 8.259c-0.149-0.297-0.511-0.417-0.808-0.267l0.808 0.267zM31.809 12.841l-0.122 0.055M31.809 12.841c0 0 0 0 0 0l-0.122 0.055M31.809 12.841c0.693 1.546 0.193 3.365-0.708 5.045-0.904 1.686-2.232 3.267-3.257 4.361M31.687 12.896c1.333 2.974-1.897 7.079-3.941 9.261M27.843 22.248l-0.097-0.091M27.843 22.248c0 0 0 0 0 0l-0.097-0.091M27.843 22.248c-0.119 0.127-0.279 0.191-0.439 0.191-0.147 0-0.295-0.054-0.412-0.163v0c-0.243-0.227-0.255-0.608-0.028-0.851M27.746 22.157l-1.051-9.846c-0.182-0.043-4.053-0.915-9.338 0.917-0.198-0.64-0.413-1.276-0.644-1.897 2.809-0.534 5.865-0.723 8.304-0.506 1.097 0.097 2.335 0.297 3.394 0.69 1.062 0.395 1.921 0.976 2.299 1.819v0c0.383 0.854 0.259 2.012-0.377 3.403-0.635 1.387-1.77 2.982-3.368 4.687M26.964 21.424l0.097 0.091M26.964 21.424c0 0 0 0 0 0l0.097 0.091M27.062 21.516c3.207-3.424 4.581-6.426 3.77-8.236l-3.748 8.899c-0.189-0.177-0.199-0.474-0.022-0.663zM18.276 16.913v0c0.061 0.327-0.155 0.641-0.481 0.702 0 0 0 0 0 0l0.481-0.702zM18.276 16.913c-0.154-0.824-0.351-1.674-0.583-2.528M18.276 16.913l-0.583-2.528M17.693 14.385c2.472-0.863 4.633-1.094 6.187-1.106 0.789-0.006 1.421 0.044 1.857 0.096 0.218 0.026 0.387 0.052 0.503 0.073 0.058 0.010 0.102 0.019 0.132 0.025l0.035 0.007 0.009 0.002c0.002 0.001 0.003 0.001 0.003 0.001l0.030-0.13M17.693 14.385l9.32-1.381c-0.059 0.252-0.312 0.408-0.564 0.349M26.449 13.353l-0.031 0.13c0.324 0.077 0.648-0.124 0.724-0.448M26.449 13.353l0.694-0.318M27.142 13.035c0.076-0.324-0.124-0.648-0.448-0.724l0.448 0.724zM17.092 17.134l0.131-0.025-2.643-9.117c-0.297 0.149-0.417 0.511-0.267 0.808 1.219 2.423 2.258 5.54 2.779 8.334z"></path>
<path d="M24.651 17.172v0c0.298-0.147 0.659-0.024 0.806 0.275 0 0 0 0 0 0l-0.806-0.275zM24.651 17.172l-5.455 2.681M24.651 17.172l-5.455 2.681M18.922 20.659c0 0 0 0 0 0v0zM18.922 20.659c-0.147-0.298-0.024-0.659 0.275-0.806M18.922 20.659l0.275-0.806M19.669 20.814v0z"></path>
<path d="M7.51 6.909v0c0.264 0.202 0.315 0.579 0.113 0.843l-0.106-0.081M7.51 6.909l-2.829 16.364c0.039 0 0.079-0.004 0.118-0.012M7.51 6.909c-0.264-0.202-0.642-0.151-0.844 0.113v0c-0.053 0.070-1.166 1.546-2.041 4.234-0.802 2.466-1.545 6.466-0.535 11.533l0.131-0.026c-1.005-5.041-0.266-9.017 0.531-11.466 0.869-2.671 1.973-4.133 2.020-4.194 0.157-0.206 0.451-0.245 0.657-0.088s0.245 0.451 0.088 0.657M7.51 6.909l-1.881 4.721c0.817-2.533 1.877-3.945 1.888-3.959M7.518 7.672l0.106 0.081c0 0-0.004 0.006-0.012 0.017s-0.020 0.028-0.035 0.050c-0.031 0.044-0.075 0.109-0.131 0.194-0.112 0.171-0.269 0.425-0.452 0.758-0.365 0.665-0.831 1.643-1.236 2.901-0.748 2.317-1.441 6.088-0.485 10.882 0.065 0.326-0.147 0.643-0.473 0.708M4.799 23.262h0c-0 0-0 0-0 0z"></path>
<path d="M14.061 14.607h0c0.309-0.121 0.658 0.031 0.779 0.341M14.061 14.607l1.535 4.239c0 0 0 0 0 0M14.061 14.607c-0.309 0.121-0.462 0.47-0.342 0.779 0 0 0 0 0 0s0.001 0.002 0.002 0.005l0.005 0.014c0.005 0.012 0.011 0.030 0.019 0.053 0.017 0.047 0.040 0.115 0.069 0.203 0.057 0.176 0.134 0.432 0.213 0.749 0.158 0.635 0.326 1.518 0.366 2.514 0.105 2.62-0.674 4.749-2.307 6.343v0c-0.238 0.232-0.243 0.613-0.010 0.851v0c0.118 0.121 0.275 0.182 0.431 0.182 0.151 0 0.303-0.057 0.421-0.171 1.874-1.829 2.793-4.351 2.668-7.284M14.061 14.607l1.535 4.239M14.84 14.948v-0c0 0 0 0 0 0zM14.84 14.948c0.030 0.076 0.662 1.713 0.755 3.898"></path>
<path d="M10.849 10.251v0l-0.001 0c-0.332 0.012-0.592 0.291-0.58 0.623v0l0.216 6.074c0.012 0.325 0.279 0.581 0.601 0.581 0.008 0 0.015-0 0.021-0l0-0c0.332-0.012 0.592-0.291 0.58-0.623v0l-0.216-6.074c0 0 0 0 0 0-0.012-0.333-0.291-0.59-0.622-0.58z"></path>
<path d="M6.066 24.541h0c-0 0 0.001 0.001 0.003 0.003l0.008 0.009 0.031 0.033c0.027 0.028 0.067 0.069 0.117 0.118 0.101 0.098 0.246 0.232 0.422 0.377 0.355 0.292 0.831 0.623 1.34 0.808 0.312 0.114 0.474 0.459 0.36 0.771 0 0 0 0 0 0l-0.125-0.046c-0.069 0.19-0.249 0.309-0.441 0.309-0.053 0-0.107-0.009-0.16-0.028l-1.556-2.354zM6.066 24.541c-0.223-0.246-0.603-0.266-0.85-0.043l0.85 0.043zM5.172 25.348c0.045 0.050 1.086 1.193 2.404 1.672l-2.404-1.672zM5.215 24.498c-0.247 0.223-0.266 0.604-0.043 0.85l0.043-0.85z"></path>
<path d="M11.35 18.195c-0.332 0-0.602 0.269-0.602 0.602v0.043c0 0.333 0.27 0.602 0.602 0.602s0.602-0.269 0.602-0.602v-0.043c0-0.333-0.27-0.602-0.602-0.602z"></path>
<path d="M10.195 19.43c-0.332 0-0.602 0.269-0.602 0.602v0.043c0 0.333 0.27 0.602 0.602 0.602s0.602-0.269 0.602-0.602v-0.043c0-0.333-0.27-0.602-0.602-0.602z"></path>
<path d="M11.686 21.529c-0.332 0-0.602 0.269-0.602 0.602v0.043c0 0.333 0.27 0.602 0.602 0.602s0.602-0.27 0.602-0.602v-0.043c0-0.333-0.27-0.602-0.602-0.602z"></path>
</symbol>
</defs>
</svg>
