<svg aria-hidden="true" style="position: absolute; width: 0; height: 0; overflow: hidden;" version="1.1" xmlns="http://www.w3.org/2000/svg" xmlns:xlink="http://www.w3.org/1999/xlink">
<defs>
<symbol id="icon-shopping" viewBox="0 0 32 32">
<path d="M31.815 6.686c-0.183-0.263-0.478-0.425-0.798-0.438l-19.85-0.856c-0.57-0.025-1.045 0.415-1.070 0.982s0.415 1.045 0.982 1.070l18.506 0.798-3.639 11.353h-16.192l-2.925-15.929c-0.064-0.349-0.304-0.64-0.635-0.77l-4.791-1.882c-0.528-0.207-1.124 0.053-1.331 0.58s0.052 1.124 0.58 1.331l4.26 1.674 2.977 16.208c0.090 0.487 0.514 0.841 1.010 0.841h0.494l-1.128 3.132c-0.094 0.262-0.056 0.554 0.105 0.782s0.421 0.364 0.7 0.364h0.791c-0.49 0.545-0.791 1.264-0.791 2.053 0 1.699 1.382 3.080 3.080 3.080s3.080-1.382 3.080-3.080c0-0.79-0.301-1.508-0.791-2.053h6.716c-0.49 0.545-0.791 1.264-0.791 2.053 0 1.699 1.382 3.080 3.080 3.080s3.080-1.382 3.080-3.080c0-0.79-0.301-1.508-0.791-2.053h0.962c0.473 0 0.856-0.383 0.856-0.856s-0.383-0.856-0.856-0.856h-16.408l0.924-2.567h15.484c0.447 0 0.842-0.288 0.978-0.713l4.278-13.348c0.098-0.305 0.048-0.638-0.135-0.9zM12.15 29.348c-0.755 0-1.369-0.614-1.369-1.369s0.614-1.369 1.369-1.369c0.755 0 1.369 0.614 1.369 1.369s-0.614 1.369-1.369 1.369zM23.444 29.348c-0.755 0-1.369-0.614-1.369-1.369s0.614-1.369 1.369-1.369c0.755 0 1.369 0.614 1.369 1.369s-0.614 1.369-1.369 1.369z"></path>
</symbol>
<symbol id="icon-comparison" viewBox="0 0 32 32">
<path d="M31.866 19.535l-5.391-8.986 4.838-1.344c0.499-0.139 0.791-0.655 0.652-1.154s-0.655-0.791-1.154-0.652l-6.014 1.671c-0 0-0.001 0-0.001 0l-7.858 2.183v-10.314c0-0.518-0.42-0.938-0.938-0.938s-0.938 0.42-0.938 0.938v10.835l-8.34 2.317c-0 0-0.001 0-0.001 0l-6.034 1.676c-0.499 0.139-0.791 0.655-0.652 1.154 0.115 0.415 0.492 0.687 0.903 0.687 0.083 0 0.168-0.011 0.251-0.034l3.762-1.045-4.816 8.028c-0.087 0.146-0.134 0.312-0.134 0.482 0 3.839 3.123 6.962 6.962 6.962s6.962-3.123 6.962-6.962c0-0.17-0.046-0.337-0.134-0.482l-5.391-8.986 14.625-4.062-4.816 8.028c-0.087 0.146-0.134 0.312-0.134 0.482 0 3.839 3.123 6.962 6.962 6.962 1.86 0 3.608-0.724 4.923-2.039s2.039-3.063 2.039-4.923c0-0.17-0.046-0.337-0.133-0.482zM6.963 30.125c-2.485 0-4.558-1.791-5-4.15h10c-0.441 2.359-2.515 4.15-5 4.15zM11.332 24.1h-8.738l4.369-7.283 4.369 7.283zM25.037 11.797l4.369 7.282h-8.738l4.369-7.282zM25.037 25.104c-2.485 0-4.558-1.791-5-4.15h10c-0.441 2.359-2.515 4.15-5 4.15z"></path>
</symbol>
<symbol id="icon-menu" viewBox="0 0 32 32">
<path d="M29.188 3.813h-18.875c-1.551 0-2.813 1.262-2.813 2.813s1.261 2.813 2.813 2.813h18.875c1.551 0 2.812-1.261 2.812-2.813s-1.262-2.813-2.812-2.813z"></path>
<path d="M29.188 13.188h-18.875c-1.551 0-2.813 1.262-2.813 2.812s1.261 2.812 2.813 2.812h18.875c1.551 0 2.812-1.261 2.812-2.812s-1.262-2.812-2.812-2.812z"></path>
<path d="M29.188 22.563h-18.875c-1.551 0-2.813 1.262-2.813 2.812s1.261 2.813 2.813 2.813h18.875c1.551 0 2.812-1.261 2.812-2.813s-1.262-2.812-2.812-2.812z"></path>
<path d="M2.813 3.813c-1.551 0-2.813 1.262-2.813 2.813s1.261 2.813 2.813 2.813c1.551 0 2.813-1.261 2.813-2.813s-1.262-2.813-2.813-2.813z"></path>
<path d="M2.813 13.188c-1.551 0-2.813 1.262-2.813 2.812s1.261 2.812 2.813 2.812c1.551 0 2.813-1.261 2.813-2.812s-1.262-2.812-2.813-2.812z"></path>
<path d="M2.813 22.563c-1.551 0-2.813 1.262-2.813 2.812s1.261 2.813 2.813 2.813c1.551 0 2.813-1.261 2.813-2.813s-1.262-2.812-2.813-2.812z"></path>
</symbol>
<symbol id="icon-logout" viewBox="0 0 32 32">
<path d="M5.333 21.333v2.667c0 2.947 2.388 5.333 5.333 5.333h13.333c2.947 0 5.333-2.387 5.333-5.333 0-4.439 0-11.56 0-16 0-2.945-2.387-5.333-5.333-5.333-3.812 0-9.52 0-13.333 0-2.945 0-5.333 2.388-5.333 5.333v2.667c0 0.736 0.597 1.333 1.333 1.333s1.333-0.597 1.333-1.333c0 0 0-1.249 0-2.667 0-1.472 1.195-2.667 2.667-2.667h13.333c1.473 0 2.667 1.195 2.667 2.667v16c0 1.473-1.193 2.667-2.667 2.667-3.812 0-9.52 0-13.333 0-1.472 0-2.667-1.193-2.667-2.667 0-1.416 0-2.667 0-2.667 0-0.735-0.597-1.333-1.333-1.333s-1.333 0.599-1.333 1.333zM15.448 14.667l-1.724-1.723c-0.52-0.521-0.52-1.365 0-1.887 0.521-0.52 1.365-0.52 1.885 0l4 4c0.521 0.521 0.521 1.365 0 1.887l-4 4c-0.52 0.52-1.364 0.52-1.885 0-0.52-0.521-0.52-1.365 0-1.887l1.724-1.724h-11.448c-0.736 0-1.333-0.597-1.333-1.333 0-0.735 0.597-1.333 1.333-1.333h11.448z"></path>
</symbol>
</defs>
</svg>
